<svg width="1126" height="1126" viewBox="0 0 1126 1126" fill="none" xmlns="http://www.w3.org/2000/svg">
<circle cx="563" cy="563" r="563" fill="#230401"/>
<path d="M563.908 279.421C581.552 279.421 595.908 262.182 595.908 240.991C595.908 220.237 565.918 173.134 564.641 171.139L563.908 170L563.175 171.147C561.9 173.137 531.908 220.244 531.908 240.995C531.909 262.182 546.264 279.421 563.908 279.421Z" fill="#BB3B30"/>
<path d="M583.526 363.295C583.526 376.392 574.654 387.046 563.749 387.046C552.845 387.046 543.973 376.392 543.973 363.298C543.973 350.473 562.508 321.36 563.297 320.13L563.749 319.421L564.202 320.125C564.992 321.358 583.526 350.469 583.526 363.295Z" fill="#BB3B30"/>
<path d="M576.24 454.162C576.24 462.256 570.757 468.84 564.017 468.84C557.278 468.84 551.795 462.256 551.795 454.163C551.795 446.237 563.25 428.245 563.738 427.484L564.017 427.046L564.297 427.482C564.785 428.243 576.24 446.235 576.24 454.162Z" fill="#BB3B30"/>
<path d="M571.416 525.913C571.416 531.009 568.025 535.155 563.857 535.155C559.69 535.155 556.299 531.009 556.299 525.914C556.299 520.924 563.383 509.595 563.684 509.116L563.857 508.84L564.031 509.114C564.332 509.594 571.416 520.922 571.416 525.913Z" fill="#BB3B30"/>
<path d="M564.022 591.021C566.682 591.021 568.847 588.522 568.847 585.449C568.847 582.44 564.325 575.61 564.132 575.32L564.022 575.155L563.911 575.322C563.719 575.61 559.197 582.441 559.197 585.45C559.197 588.522 561.362 591.021 564.022 591.021Z" fill="#BB3B30"/>
<path fill-rule="evenodd" clip-rule="evenodd" d="M563.408 679L415.304 382.791L487.795 333H288.908L563.408 882L837.908 333H639.205L711.559 382.697L563.408 679ZM343.038 381.257L563.409 822L783.774 381.27L734.81 425.204L563.413 768L392.015 425.204L343.038 381.257Z" fill="#BB3B30"/>
<path d="M253.896 381.582C255.413 382.568 256.109 413.583 254.775 420.738C253.275 428.783 249.387 437.491 245.323 441.911C243.402 444 242.297 446.847 242.924 448.095C243.209 448.663 243.679 448.362 245.396 446.512C247.061 444.719 248.812 443.574 253.547 441.183C256.863 439.508 260.549 437.925 261.738 437.666C262.928 437.407 265.267 436.85 266.938 436.428C270.718 435.471 278.449 434.307 279.292 434.567C280.096 434.816 277.565 440.256 272.101 450.021C264.813 463.046 259.667 468.766 251.585 472.822C247.483 474.881 242.213 475.913 240.239 475.045C239.061 474.527 238.884 475.514 238.173 486.559C237.455 497.74 237.415 499.364 237.853 499.511C238.077 499.586 238.863 498.872 239.6 497.925C243.416 493.023 249.688 488.864 257.708 485.918C263.656 483.733 271.579 481.464 272.431 481.702C273.15 481.903 268.265 495.279 264.697 502.883C259.167 514.668 255.438 519.08 247.589 523.129C243.448 525.265 241.863 525.833 239.804 525.919C238.383 525.977 237.197 526.151 237.17 526.304C237.143 526.457 237.219 528.359 237.338 530.531C237.457 532.702 237.6 535.861 237.656 537.549C237.884 544.428 238.489 550.551 238.921 550.334C239.173 550.208 240.228 548.837 241.266 547.289C243.862 543.416 246.467 541.064 252.257 537.364C257.33 534.123 267.827 529.283 270.359 529.019C271.683 528.88 271.677 529.102 270.174 535.43C269.317 539.034 267.249 546.089 265.577 551.106C262.846 559.303 262.183 560.689 259.035 564.768C257.109 567.265 254.86 569.961 254.038 570.758C252.119 572.621 244.866 576.275 243.794 575.918C242.29 575.416 241.443 576.799 241.808 579.158C242.133 581.253 243.868 591.541 244.937 597.704C245.168 599.039 245.515 600.184 245.708 600.248C245.901 600.312 246.785 598.947 247.673 597.214C248.562 595.481 249.728 593.544 250.265 592.909C253.868 588.651 253.985 588.538 257.947 585.429C262.248 582.055 272.823 575.515 274.625 575.114C276.082 574.791 276.082 574.8 274.941 583.303C272.223 603.545 269.8 610.727 263.059 618.53C260.652 621.316 255.968 624.285 252.512 625.217C251.577 625.468 251.598 626.086 252.678 630.19C253.955 635.046 257.807 647.613 258.348 648.689C258.517 649.026 259.198 647.734 259.862 645.817C262.294 638.791 266.95 633.224 276.876 625.473C281.415 621.928 284.174 620.146 284.821 620.339C285.449 620.527 285.642 627.529 285.27 636.615C284.745 649.41 282.191 658.612 277.399 664.977C274.909 668.283 273.887 669.202 270.73 670.971L267.001 673.061L268.602 677.032C272.042 685.568 276.466 695.025 276.914 694.801C277.166 694.674 277.431 693.715 277.501 692.67C277.702 689.678 280.326 684.061 283.584 679.65C288.3 673.264 298.299 663.418 299.618 663.86C299.952 663.972 300.616 667.799 301.095 672.365C303 690.543 302.138 700.128 297.908 707.805C295.466 712.238 293.502 714.521 290.815 716.05L288.228 717.522L291.077 723.582C293.852 729.481 299.648 738.942 300.29 738.62C300.466 738.532 300.564 737.57 300.507 736.482C300.361 733.671 302.766 726.774 305.509 722.137C309.322 715.693 317.907 705.068 319.207 705.185C319.767 705.236 319.848 705.515 321.939 714.647C325.463 730.032 325.817 739.218 323.196 747.335C321.356 753.038 319.301 756.258 315.885 758.796L314.001 760.195L315.267 762.34C315.963 763.52 318.408 767.056 320.7 770.197C322.991 773.338 325.443 776.719 326.148 777.711C326.853 778.702 327.694 779.474 328.017 779.428C328.34 779.38 328.559 777.889 328.504 776.113C328.361 771.534 331.6 762.03 335.684 755.043C338.933 749.486 342.477 744.286 343.298 743.874C343.824 743.61 348.097 754.515 349.328 759.261C349.643 760.476 350.311 762.95 350.812 764.758C353.551 774.65 353.679 783.019 351.206 790.393C350.168 793.486 346.935 798.225 345.304 799.043C344.286 799.555 344.528 799.893 350.742 806.613C353.776 809.896 357.275 813.691 358.515 815.047C359.756 816.402 360.94 817.34 361.148 817.132C361.355 816.923 361.336 815.172 361.105 813.238C360.556 808.634 361.195 804.27 363.359 797.855C365.381 791.859 370.839 780.61 372.011 780.022C372.717 779.668 373.346 780.793 377.969 790.683C380.812 796.765 383.447 802.956 383.824 804.441C384.202 805.927 384.834 808.384 385.229 809.902C387.291 817.822 385.462 829.65 381.615 833.286C379.82 834.982 379.778 835.801 381.426 836.943C381.926 837.288 384.388 839.349 386.898 841.522C391.388 845.408 394.151 847.72 397.306 850.23C399.02 851.593 399.598 850.826 398.514 848.628C397.39 846.352 397.094 840.656 397.809 835.115C398.574 829.198 403.734 812.571 404.857 812.405C405.579 812.299 406.887 814.229 414.387 826.477C422.796 840.21 425.229 848.719 423.463 858.22C422.764 861.982 422.401 862.879 420.652 865.171L419.419 866.785L423.405 869.583C431.265 875.1 440.216 880.606 440.52 880.111C440.69 879.833 440.284 878.52 439.617 877.191C438.035 874.038 437.152 867.562 437.542 861.965C438.049 854.69 440.742 841.649 441.853 841.092C442.41 840.812 448.304 847.713 455.285 856.821C460.781 863.989 466.868 877.35 466.037 880.418C465.934 880.795 466.002 881.407 466.188 881.776C466.859 883.113 465.752 889.725 464.543 891.606C463.839 892.702 463.551 893.756 463.874 894.051C464.694 894.8 481.811 903.215 489.912 906.853C498.035 910.499 506.119 913.781 517.504 918.053C524.738 920.767 525.89 921.377 526.652 922.895C527.831 925.245 526.854 928.259 524.535 929.423C523.152 930.117 522.153 930.027 519.001 928.924C514.104 927.209 501.711 922.502 498.686 921.208C497.413 920.664 495.121 919.707 493.592 919.083C486.57 916.216 469.841 908.36 463.68 905.038C463.436 904.907 463.204 904.781 462.982 904.661C459.972 903.035 459.009 902.515 458.514 902.802C458.282 902.937 458.153 903.252 457.963 903.714C457.934 903.786 457.903 903.861 457.87 903.94C456.128 908.102 451.819 911.562 446.496 913.072C438.265 915.408 433.433 915.569 424.261 913.816C418.995 912.809 397.611 905.985 397.812 905.375C398.225 904.125 404.321 900.339 412.952 895.975C423.128 890.827 425.596 890.015 431.969 889.712C435.175 889.559 435.686 889.092 433.848 887.994C430.037 885.716 422.14 880.596 418.409 877.982C416.053 876.332 414.041 875.024 413.938 875.076C413.834 875.128 413.044 876.153 412.182 877.354C409.878 880.563 404.965 883.21 399.525 884.174C392.165 885.477 386.689 884.927 377.872 881.997C370.204 879.449 354.333 872.172 353.702 870.913C353.309 870.131 368.039 863.476 374.456 861.535C381.21 859.493 383.144 859.18 388.175 859.318C390.691 859.387 392.692 859.328 392.621 859.187C392.55 859.046 391.594 858.203 390.496 857.315C386.762 854.292 375.567 844.718 374.653 843.766C373.579 842.648 373.239 842.77 371.375 844.943C369.422 847.221 365.693 848.965 361 849.794C350.822 851.593 341.501 848.927 326.197 839.842C318.426 835.229 314.335 832.393 314.542 831.763C314.758 831.112 324.096 827.767 329.761 826.312C338.686 824.021 344.698 823.451 350.461 824.349C352.261 824.629 353.782 824.712 353.841 824.533C353.901 824.354 353.127 823.389 352.122 822.388C351.118 821.387 347.482 817.504 344.043 813.758C340.603 810.012 337.505 806.852 337.156 806.736C336.808 806.62 336.03 807.064 335.427 807.723C331.577 811.927 321.463 813.103 312.349 810.405C305.337 808.329 294.306 801.363 283.353 792.094C279.599 788.918 279.319 788.137 281.834 787.855C282.482 787.782 284.378 787.376 286.048 786.952C296.744 784.235 309.211 783.509 315.838 785.216C318.131 785.807 320.058 786.137 320.12 785.949C320.183 785.761 318.751 783.709 316.938 781.389C315.126 779.069 312.404 775.406 310.889 773.248C309.374 771.09 307.601 768.619 306.947 767.756L305.76 766.188L301.767 768.104C296.32 770.719 291.372 770.835 283.742 768.527C275.736 766.105 265.51 758.232 253.138 744.964L253.07 744.891C251.789 743.518 251.084 742.762 251.238 742.281C251.427 741.694 252.9 741.519 256.174 741.129L256.314 741.112C268.921 739.609 280.772 740.27 287.304 742.84C289.206 743.588 290.813 744.043 290.876 743.852C291.013 743.438 279.712 723.353 279.147 723.003C278.932 722.87 277.291 723.356 275.5 724.081C271.024 725.893 266.566 725.753 260.092 723.597C250.878 720.528 244.141 714.502 230.396 697.034C226.84 692.515 226.999 691.93 231.729 692.098C233.223 692.151 236.915 692.269 239.936 692.361C249.656 692.655 260.044 695.092 264.855 698.206C265.829 698.836 266.815 699.162 267.046 698.93C267.502 698.472 267.492 698.448 262.589 687.634C260.751 683.579 258.968 679.348 258.627 678.231L258.007 676.202L256.148 677.135C253.335 678.547 247.276 678.403 242.587 676.814C234.266 673.994 228.784 669.309 220.232 657.71C217.392 653.857 209.937 641.306 210.134 640.708C210.459 639.722 225.253 641.948 232.576 644.085C238.428 645.793 243.264 648.036 246.891 650.728C248.597 651.993 249.295 651.731 248.491 650.128C248.157 649.464 247.568 647.723 247.182 646.26C246.034 641.916 242.231 628.977 241.919 628.355C241.76 628.039 240.641 628.093 239.431 628.476C235.901 629.591 230.218 628.493 225.277 625.742C216.14 620.652 212.687 616.334 204.2 599.383C200.305 591.606 198.337 587.215 198.51 586.691C198.698 586.121 200.391 586.321 204.374 587.386C218.039 591.039 227.497 595.263 232.733 600.051C235.62 602.691 236.136 602.727 235.552 600.248C235.087 598.274 233.403 588.454 232.592 582.99C232.247 580.667 231.822 578.481 231.647 578.132C231.472 577.783 230.206 577.729 228.834 578.012C224.116 578.983 216.419 575.492 210.474 569.683C207.915 567.182 207.268 566.126 202.838 557.209C199.072 549.628 197.519 545.907 195.836 540.437C193.383 532.46 193.164 531.479 193.773 531.174C194.378 530.87 200.937 533.315 207.056 536.124C216.49 540.455 221.426 543.865 226.873 549.812L228.822 551.94L228.517 548.363C228.349 546.396 228.049 540.675 227.851 535.65C227.487 526.418 227.079 525.069 224.974 526.125C222.592 527.321 215.64 524.061 211.151 519.643C204.736 513.329 202.66 509.276 198.69 495.312C196.999 489.364 194.692 476.591 195.073 475.282C195.334 474.379 196.735 474.997 204.152 479.292C215.174 485.673 222.582 491.878 225.05 496.794C225.712 498.114 226.525 499.218 226.856 499.248C227.388 499.296 228.283 495.798 227.923 495.079C227.81 494.855 228.51 484.521 229.258 475.363C229.344 474.312 229.177 473.838 228.739 473.888C226.248 474.171 222.16 472.753 219.382 470.645C209.734 463.32 204.747 450.551 203.818 430.796C203.751 429.374 203.639 428.097 203.569 427.958C203.224 427.271 203.186 418.467 203.527 418.295C204.061 418.028 205.532 418.967 211.156 423.169C217.372 427.811 219.742 429.934 225.783 436.267C226.711 437.239 228.514 440.054 229.79 442.521C231.066 444.989 232.221 446.95 232.357 446.88C233.588 446.239 233.772 442.26 232.671 440.066C229.661 434.068 230.151 419.972 233.677 411.167C235.49 406.639 240.633 397.882 245.111 391.7C248.414 387.141 249.677 385.556 252.996 381.808C253.247 381.525 253.652 381.423 253.896 381.582Z" fill="#BB3B30"/>
<path d="M871.414 381.668C869.897 382.655 869.2 413.67 870.534 420.824C872.034 428.87 875.922 437.578 879.987 441.997C881.907 444.086 883.012 446.934 882.386 448.182C882.101 448.75 881.63 448.448 879.913 446.599C878.248 444.805 876.497 443.661 871.763 441.269C868.447 439.594 864.76 438.012 863.571 437.753C862.382 437.494 860.042 436.937 858.372 436.514C854.592 435.558 846.86 434.394 846.017 434.654C845.213 434.902 847.745 440.343 853.208 450.108C860.496 463.132 865.643 468.852 873.725 472.908C877.827 474.967 883.097 476 885.071 475.132C886.248 474.614 886.425 475.6 887.136 486.646C887.855 497.826 887.895 499.451 887.456 499.597C887.232 499.672 886.446 498.958 885.709 498.011C881.894 493.11 875.621 488.95 867.601 486.004C861.653 483.819 853.73 481.55 852.878 481.788C852.159 481.989 857.044 495.365 860.613 502.969C866.143 514.754 869.871 519.166 877.72 523.215C881.861 525.351 883.447 525.919 885.505 526.005C886.927 526.064 888.112 526.237 888.139 526.391C888.166 526.543 888.091 528.446 887.971 530.617C887.852 532.789 887.71 535.947 887.654 537.636C887.426 544.515 886.82 550.637 886.389 550.421C886.137 550.294 885.081 548.924 884.043 547.375C881.447 543.503 878.842 541.15 873.052 537.451C867.979 534.209 857.483 529.37 854.951 529.105C853.626 528.967 853.633 529.188 855.135 535.516C855.992 539.121 858.06 546.175 859.732 551.193C862.463 559.389 863.127 560.775 866.274 564.854C868.201 567.351 870.449 570.047 871.271 570.845C873.191 572.708 880.444 576.361 881.515 576.004C883.02 575.503 883.867 576.885 883.501 579.244C883.177 581.339 881.441 591.627 880.373 597.79C880.141 599.125 879.794 600.27 879.602 600.334C879.409 600.398 878.525 599.033 877.636 597.3C876.748 595.567 875.582 593.63 875.045 592.995C871.441 588.738 871.325 588.624 867.362 585.515C863.062 582.141 852.487 575.601 850.684 575.201C849.228 574.877 849.227 574.887 850.369 583.389C853.087 603.632 855.51 610.813 862.251 618.617C864.658 621.403 869.341 624.372 872.798 625.303C873.733 625.555 873.712 626.173 872.632 630.277C871.354 635.132 867.502 647.699 866.962 648.776C866.793 649.113 866.111 647.82 865.448 645.903C863.015 638.878 858.359 633.31 848.433 625.559C843.894 622.014 841.135 620.232 840.488 620.425C839.86 620.613 839.667 627.615 840.04 636.702C840.564 649.496 843.118 658.698 847.911 665.063C850.4 668.369 851.422 669.288 854.58 671.057L858.308 673.147L856.707 677.119C853.267 685.655 848.844 695.112 848.396 694.887C848.143 694.76 847.879 693.801 847.809 692.757C847.608 689.764 844.984 684.148 841.726 679.736C837.009 673.35 827.011 663.505 825.691 663.947C825.357 664.058 824.693 667.886 824.215 672.452C822.309 690.629 823.171 700.214 827.401 707.891C829.843 712.324 831.807 714.607 834.494 716.136L837.082 717.609L834.232 723.669C831.457 729.568 825.662 739.029 825.019 738.706C824.843 738.618 824.746 737.656 824.802 736.569C824.948 733.757 822.544 726.86 819.801 722.224C815.988 715.78 807.402 705.155 806.102 705.272C805.542 705.322 805.462 705.602 803.37 714.733C799.846 730.119 799.493 739.305 802.113 747.421C803.954 753.125 806.008 756.345 809.425 758.883L811.309 760.281L810.043 762.427C809.347 763.607 806.902 767.142 804.61 770.283C802.318 773.424 799.867 776.805 799.162 777.797C798.456 778.788 797.615 779.561 797.292 779.514C796.969 779.467 796.751 777.976 796.806 776.199C796.948 771.62 793.709 762.117 789.625 755.129C786.377 749.572 782.832 744.372 782.011 743.961C781.486 743.697 777.212 754.601 775.981 759.347C775.666 760.562 774.998 763.036 774.497 764.844C771.758 774.736 771.63 783.105 774.104 790.48C775.142 793.572 778.374 798.311 780.005 799.13C781.024 799.641 780.781 799.979 774.568 806.7C771.533 809.983 768.035 813.778 766.794 815.133C765.554 816.488 764.369 817.426 764.162 817.218C763.955 817.01 763.974 815.258 764.204 813.325C764.753 808.72 764.114 804.357 761.951 797.941C759.928 791.945 754.471 780.697 753.299 780.108C752.593 779.754 751.964 780.88 747.34 790.77C744.498 796.851 741.862 803.042 741.485 804.528C741.107 806.013 740.475 808.47 740.08 809.989C738.019 817.909 739.847 829.737 743.695 833.372C745.49 835.068 745.532 835.887 743.883 837.029C743.384 837.374 740.921 839.435 738.411 841.608C733.921 845.495 731.158 847.806 728.003 850.317C726.289 851.68 725.711 850.913 726.796 848.714C727.919 846.439 728.216 840.742 727.5 835.201C726.736 829.284 721.576 812.657 720.453 812.492C719.73 812.385 718.423 814.315 710.923 826.563C702.513 840.296 700.08 848.806 701.846 858.307C702.546 862.068 702.908 862.965 704.658 865.257L705.89 866.872L701.904 869.669C694.044 875.186 685.093 880.693 684.789 880.197C684.619 879.92 685.025 878.606 685.692 877.278C687.275 874.124 688.157 867.648 687.767 862.051C687.26 854.776 684.567 841.736 683.457 841.178C682.899 840.899 677.006 847.799 670.024 856.907C664.529 864.076 658.441 877.437 659.273 880.504C659.375 880.881 659.307 881.493 659.122 881.863C658.451 883.199 659.557 889.812 660.766 891.692C661.471 892.788 661.759 893.842 661.435 894.138C660.616 894.886 643.499 903.302 635.397 906.939C627.274 910.586 619.191 913.867 607.806 918.139C600.572 920.853 599.42 921.463 598.658 922.981C597.478 925.332 598.456 928.346 600.775 929.51C602.158 930.204 603.157 930.114 606.308 929.01C611.205 927.295 623.598 922.588 626.624 921.295C627.896 920.75 630.188 919.794 631.717 919.17C638.74 916.302 655.468 908.447 661.629 905.125C661.859 905 662.079 904.882 662.289 904.768L662.327 904.748C665.337 903.122 666.301 902.601 666.795 902.889C667.028 903.024 667.157 903.338 667.346 903.8L667.348 903.804C667.377 903.875 667.407 903.949 667.44 904.027C669.182 908.189 673.491 911.648 678.813 913.159C687.044 915.494 691.877 915.656 701.048 913.903C706.314 912.896 727.698 906.071 727.497 905.462C727.084 904.211 720.988 900.426 712.358 896.061C702.182 890.914 699.714 890.102 693.341 889.798C690.134 889.645 689.624 889.179 691.462 888.08C695.273 885.803 703.169 880.682 706.901 878.068C709.256 876.418 711.268 875.111 711.372 875.163C711.475 875.214 712.265 876.24 713.128 877.441C715.431 880.649 720.345 883.296 725.784 884.26C733.144 885.563 738.621 885.013 747.438 882.084C755.106 879.536 770.976 872.258 771.608 871C772 870.218 757.271 863.562 750.854 861.622C744.099 859.579 742.165 859.267 737.134 859.404C734.618 859.473 732.618 859.414 732.688 859.274C732.759 859.133 733.715 858.29 734.813 857.401C738.547 854.378 749.743 844.804 750.656 843.853C751.731 842.734 752.071 842.856 753.934 845.03C755.888 847.308 759.617 849.052 764.309 849.88C774.488 851.679 783.809 849.013 799.112 839.929C806.883 835.315 810.974 832.479 810.767 831.85C810.552 831.198 801.213 827.853 795.549 826.399C786.624 824.107 780.612 823.537 774.849 824.435C773.049 824.716 771.527 824.799 771.468 824.62C771.409 824.441 772.183 823.475 773.187 822.475C774.192 821.474 777.828 817.591 781.267 813.844C784.706 810.099 787.805 806.939 788.153 806.823C788.501 806.707 789.28 807.15 789.883 807.809C793.732 812.014 803.847 813.189 812.961 810.491C819.972 808.416 831.003 801.449 841.957 792.18C845.71 789.004 845.99 788.223 843.476 787.941C842.827 787.869 840.931 787.462 839.262 787.038C828.566 784.321 816.099 783.596 809.472 785.303C807.178 785.894 805.251 786.224 805.189 786.035C805.127 785.847 806.559 783.795 808.371 781.475C810.183 779.155 812.905 775.492 814.42 773.334C815.935 771.177 817.709 768.705 818.362 767.842L819.549 766.274L823.542 768.191C828.99 770.806 833.938 770.922 841.567 768.613C849.573 766.192 859.8 758.318 872.171 745.051L872.239 744.978C873.52 743.604 874.225 742.848 874.071 742.368C873.883 741.781 872.41 741.605 869.137 741.216L868.995 741.199C856.389 739.696 844.538 740.357 838.006 742.926C836.104 743.674 834.496 744.13 834.433 743.938C834.297 743.524 845.597 723.439 846.163 723.089C846.378 722.957 848.019 723.442 849.81 724.167C854.285 725.98 858.743 725.84 865.217 723.684C874.431 720.614 881.168 714.589 894.913 697.121C898.469 692.602 898.311 692.017 893.58 692.184C892.087 692.237 888.394 692.356 885.374 692.447C875.653 692.742 865.265 695.178 860.454 698.293C859.48 698.922 858.494 699.248 858.264 699.016C857.808 698.559 857.817 698.534 862.72 687.72C864.558 683.665 866.342 679.434 866.683 678.318L867.303 676.288L869.161 677.221C871.974 678.633 878.034 678.49 882.723 676.901C891.044 674.081 896.525 669.395 905.077 657.797C907.918 653.944 915.373 641.392 915.176 640.795C914.85 639.809 900.056 642.035 892.734 644.172C886.881 645.88 882.046 648.123 878.418 650.814C876.713 652.079 876.014 651.817 876.818 650.215C877.152 649.55 877.741 647.81 878.128 646.347C879.275 642.002 883.078 629.063 883.39 628.442C883.549 628.125 884.669 628.18 885.878 628.562C889.409 629.678 895.092 628.58 900.032 625.828C909.169 620.739 912.622 616.42 921.11 599.47C925.004 591.692 926.972 587.302 926.799 586.777C926.611 586.207 924.918 586.408 920.936 587.473C907.271 591.125 897.812 595.349 892.577 600.138C889.69 602.777 889.173 602.813 889.757 600.335C890.222 598.36 891.906 588.54 892.717 583.076C893.062 580.753 893.487 578.567 893.662 578.218C893.837 577.87 895.103 577.816 896.476 578.099C901.194 579.07 908.89 575.578 914.835 569.769C917.395 567.269 918.041 566.212 922.471 557.295C926.237 549.715 927.791 545.994 929.473 540.524C931.927 532.547 932.145 531.566 931.536 531.26C930.931 530.957 924.372 533.401 918.254 536.21C908.82 540.542 903.883 543.952 898.437 549.899L896.488 552.027L896.793 548.449C896.961 546.482 897.261 540.762 897.459 535.737C897.823 526.505 898.231 525.155 900.335 526.212C902.718 527.407 909.67 524.147 914.158 519.729C920.573 513.415 922.649 509.362 926.619 495.399C928.31 489.45 930.617 476.678 930.237 475.368C929.975 474.465 928.575 475.083 921.158 479.378C910.135 485.76 902.727 491.964 900.26 496.88C899.597 498.2 898.784 499.304 898.453 499.334C897.921 499.382 897.026 495.884 897.387 495.165C897.499 494.942 896.799 484.607 896.052 475.45C895.966 474.399 896.133 473.924 896.571 473.974C899.061 474.257 903.149 472.84 905.927 470.731C915.575 463.406 920.562 450.637 921.492 430.882C921.559 429.46 921.67 428.184 921.74 428.045C922.085 427.357 922.124 418.553 921.782 418.382C921.249 418.114 919.778 419.053 914.153 423.255C907.938 427.897 905.567 430.02 899.526 436.353C898.599 437.326 896.796 440.14 895.52 442.608C894.244 445.076 893.088 447.037 892.953 446.966C891.721 446.325 891.537 442.347 892.639 440.152C895.649 434.155 895.158 420.058 891.632 411.253C889.82 406.725 884.676 397.969 880.198 391.786C876.896 387.227 875.633 385.642 872.313 381.895C872.062 381.611 871.657 381.509 871.414 381.668Z" fill="#BB3B30"/>
<path d="M456.398 229.056C456.951 231.039 456.44 233.186 455.048 234.731L454.971 234.818C454.612 235.218 454.367 235.49 454.11 235.504C453.566 235.534 452.959 234.419 451.072 230.953L448.165 225.615L448.987 225.21C450.14 224.642 452.18 224.769 453.517 225.491C454.741 226.153 456.034 227.753 456.398 229.056Z" fill="#BB3B30"/>
<path d="M452.897 241.131C452.885 241.548 452.565 241.816 450.99 242.725L449.097 243.818L438.602 225.641L440.48 224.557C441.739 223.83 442.47 223.523 442.701 223.626C443.215 223.856 452.915 240.509 452.897 241.131Z" fill="#BB3B30"/>
<path d="M418.063 282.867L389.266 232.989L426.489 211.498L455.288 261.379L418.063 282.867Z" fill="#BB3B30"/>
<path d="M456.776 267.003C456.928 268.078 457.206 269.819 457.393 270.874L457.734 272.791L442.415 281.697C430.568 288.585 427.018 290.57 426.752 290.458C426.182 290.218 420.92 285.862 420.664 285.419C420.531 285.188 423.645 283.336 438.331 274.91C450.005 268.213 456.218 264.745 456.329 264.865C456.422 264.966 456.623 265.929 456.776 267.003Z" fill="#BB3B30"/>
<path d="M423.989 209C423.903 209.052 415.885 213.682 406.173 219.289C394.45 226.057 388.448 229.426 388.319 229.312C388.212 229.217 387.846 227.396 387.505 225.267L386.887 221.394L417.817 203.682L421.777 206.926L421.778 206.926C423.81 208.589 424.138 208.858 424.097 208.94C424.089 208.955 424.067 208.964 424.041 208.975C424.025 208.981 424.006 208.989 423.989 209Z" fill="#BB3B30"/>
<path d="M405.831 268.676C405.709 268.827 404.792 269.384 403.794 269.915L401.978 270.881L391.605 252.915L395.624 250.595L400.838 259.499C405.113 266.8 406.013 268.452 405.831 268.676Z" fill="#BB3B30"/>
<path d="M328.021 308.361L326.644 308.483C325.123 308.617 323.63 308.045 321.986 306.697C321.145 306.008 320.967 305.738 320.617 304.619C320.127 303.052 320.279 301.27 321.03 299.796L321.593 298.692L390.793 258.591L396.654 268.741L328.021 308.361Z" fill="#BB3B30"/>
<path d="M674.239 229.056C673.686 231.039 674.197 233.186 675.589 234.731L675.666 234.818C676.026 235.218 676.269 235.49 676.527 235.504C677.071 235.534 677.678 234.419 679.565 230.953L682.472 225.615L681.65 225.21C680.497 224.642 678.456 224.769 677.12 225.491C675.896 226.153 674.603 227.753 674.239 229.056Z" fill="#BB3B30"/>
<path d="M677.74 241.131C677.752 241.548 678.072 241.816 679.647 242.725L681.54 243.818L692.035 225.641L690.157 224.557C688.898 223.83 688.166 223.523 687.936 223.626C687.422 223.856 677.722 240.509 677.74 241.131Z" fill="#BB3B30"/>
<path d="M712.574 282.867L741.371 232.989L704.148 211.498L675.349 261.379L712.574 282.867Z" fill="#BB3B30"/>
<path d="M673.861 267.003C673.709 268.078 673.431 269.819 673.244 270.874L672.903 272.791L688.222 281.697C700.069 288.585 703.619 290.57 703.885 290.458C704.454 290.218 709.717 285.862 709.973 285.419C710.106 285.188 706.992 283.336 692.305 274.91C680.632 268.213 674.418 264.745 674.308 264.865C674.214 264.966 674.014 265.929 673.861 267.003Z" fill="#BB3B30"/>
<path d="M706.648 209C706.734 209.052 714.752 213.682 724.464 219.289C736.187 226.057 742.189 229.426 742.318 229.312C742.425 229.217 742.791 227.396 743.131 225.267L743.75 221.394L712.82 203.682L708.86 206.925C706.827 208.589 706.499 208.858 706.54 208.94C706.548 208.955 706.57 208.964 706.595 208.975C706.605 208.979 706.616 208.983 706.626 208.988C706.633 208.991 706.641 208.995 706.648 209Z" fill="#BB3B30"/>
<path d="M724.806 268.676C724.928 268.827 725.845 269.384 726.843 269.915L728.659 270.881L739.032 252.915L735.013 250.595L729.799 259.499C725.523 266.8 724.624 268.452 724.806 268.676Z" fill="#BB3B30"/>
<path d="M802.616 308.361L803.993 308.483C805.514 308.617 807.007 308.045 808.651 306.697C809.492 306.008 809.67 305.738 810.02 304.619C810.51 303.052 810.358 301.27 809.607 299.796L809.044 298.692L739.844 258.591L733.983 268.741L802.616 308.361Z" fill="#BB3B30"/>
<path fill-rule="evenodd" clip-rule="evenodd" d="M1018.7 609.158C1005.31 743 934.292 859.862 830.825 934.571L822.999 1013.33L750.971 980.773C693.619 1006.62 629.989 1021 563 1021C496.01 1021 432.38 1006.62 375.028 980.773L302.999 1013.33L295.172 934.569C191.708 859.86 120.692 743 107.297 609.16L42.9987 563L107.297 516.84C120.692 383 191.708 266.14 295.172 191.431L302.999 112.667L375.027 145.228C432.379 119.382 496.01 105 563 105C629.989 105 693.62 119.382 750.971 145.227L822.999 112.667L830.825 191.429C934.292 266.138 1005.31 383 1018.7 516.842L1083 563L1018.7 609.158ZM1005.44 601.452L1005.35 601.513C1004.81 607.773 1004.15 613.996 1003.35 620.179L1003.43 620.125C996.126 676.602 977.768 732.603 947.516 785C917.264 837.398 877.945 881.297 832.684 915.859L832.697 915.732C827.722 919.541 822.665 923.248 817.527 926.849L810.999 992.549L767.538 972.903L767.54 972.902L750.838 965.352C634.949 1019.33 497.485 1022.61 375.178 965.345L314.999 992.549L310.276 945.022L310.278 945.023L308.471 926.832C306.814 925.676 305.167 924.51 303.53 923.334C300.083 920.848 296.672 918.312 293.3 915.73L293.304 915.765C193.237 839.461 133.135 726.389 121.15 606.973C120.971 605.157 120.804 603.337 120.647 601.515L120.635 601.506L120.635 601.504L105.835 590.879L105.835 590.881L66.9987 563L105.835 535.12L105.835 535.121L120.563 524.548L120.563 524.546L120.647 524.486C121.185 518.226 121.853 512.003 122.648 505.82L122.574 505.873C129.876 449.396 148.234 393.397 178.485 341C208.736 288.604 248.054 244.706 293.313 210.144L293.3 210.27C298.275 206.46 303.333 202.754 308.47 199.153L308.479 199.065L308.481 199.064L310.278 180.977L310.276 180.978L314.999 133.452L375.081 160.612L375.082 160.611L375.164 160.648C491.052 106.669 628.516 103.39 750.824 160.655L750.918 160.611L810.999 133.452L817.527 199.152L817.529 199.153L817.531 199.168C819.073 200.244 820.607 201.329 822.132 202.423C825.694 204.987 829.216 207.602 832.697 210.268L832.693 210.232C932.554 286.377 992.616 399.139 1004.78 518.281C1004.98 520.346 1005.17 522.415 1005.35 524.488L1005.37 524.496L1059 563L1005.44 601.452Z" fill="#BB3B30"/>
<path d="M563.63 36.1426C565.094 42.7137 565.831 46.2788 565.842 46.8378C565.363 47.1449 564.918 47.3022 564.508 47.3098C563.435 45.6895 562.45 44.8877 561.556 44.9043L551.271 45.0952L551.516 58.2872L559.789 58.1337C561.316 58.1053 562.418 57.1902 563.093 55.3883L563.763 55.3758C563.987 55.3717 564.215 55.5911 564.447 56.0342L564.675 68.3319C564.683 68.779 564.389 69.0082 563.793 69.0192C563.42 69.0262 562.961 68.3637 562.414 67.0318C561.77 66.4473 561.019 66.163 560.162 66.1789L552.112 66.3283C551.815 66.3711 551.668 66.523 551.673 66.7838L552.014 85.1185L562.97 84.9152C564.441 83.8441 565.171 83.0104 565.16 82.4141L566.278 82.3934C566.576 82.3879 566.729 82.6087 566.738 83.0559C565.951 88.8487 565.418 92.2882 565.14 93.3744L562.453 93.2006L540.317 93.6115C539.944 93.6184 539.715 93.3244 539.629 92.7296C539.624 92.4314 540.285 91.8973 541.613 91.1271C542.049 90.5598 542.261 89.8848 542.246 89.1023L541.358 41.2531C541.332 39.8742 540.569 38.9192 539.068 38.3879C538.77 38.3934 538.618 38.2471 538.612 37.949L538.608 37.7254C538.604 37.5018 538.824 37.274 539.267 37.0421L560.955 36.6396C561.701 36.6257 562.592 36.4601 563.63 36.1426Z" fill="#BB3B30"/>
<path d="M522.323 38.62C518.818 38.3309 516.787 38.211 516.23 38.2602L512.888 38.5554C506.218 40.9781 503.186 45.6238 503.792 52.4924C504.074 55.6854 505.828 59.4406 509.053 63.758C516.741 71.1609 520.702 76.1805 520.935 78.8165L521.23 82.158C521.476 84.9426 519.921 86.8199 516.564 87.7899L515.005 87.9276C511.96 88.1966 509.593 86.8154 507.904 83.7842L507.681 83.8039C507.347 83.8334 507.056 83.9339 506.809 84.1054C507.151 87.9667 507.94 91.8257 509.179 95.6825C510.243 95.4389 510.83 95.3121 510.942 95.3023L516.812 95.6817L519.04 95.4849C520.339 95.3701 521.872 94.9354 523.639 94.1806C528.769 91.2579 531.019 86.2323 530.39 79.1038L530.37 78.8811C529.921 73.7946 526.988 68.5533 521.572 63.1572C516.509 58.366 513.87 54.7453 513.653 52.2948L513.476 50.2899C513.881 47.6724 515.104 46.2734 517.146 46.093L519.597 45.8766C523.078 46.3174 524.879 47.2246 525.001 48.5984L525.446 48.559C525.855 48.5229 526.285 48.3165 526.739 47.9397C526.68 47.2714 525.863 43.9573 524.289 37.9973C524.066 38.017 523.411 38.2246 522.323 38.62Z" fill="#BB3B30"/>
<path d="M477.544 42.9215L491.041 40.9401C491.263 40.9076 491.516 41.0964 491.803 41.5065L491.868 41.949L489.694 44.0764L489.635 45.2152L496.732 93.5608C496.932 94.9252 497.977 95.8832 499.866 96.4346L499.964 97.0984L499.365 97.6384L485.204 99.7171C484.835 99.7713 484.571 99.5087 484.41 98.9296C484.356 98.5608 484.955 98.0208 486.207 97.3096C486.699 96.5592 486.845 95.5018 486.645 94.1374L479.865 47.9491C479.502 45.4783 478.436 44.3728 476.666 44.6327C476.644 44.4852 476.538 44.2748 476.347 44.0014C476.408 43.3897 476.807 43.0297 477.544 42.9215Z" fill="#BB3B30"/>
<path d="M434.422 51.5085L447.764 48.6626L448.216 49.7095C447.166 50.5051 446.634 51.2283 446.62 51.8791C446.729 52.3894 451.245 65.6986 460.168 91.8066L460.824 91.6666L460.777 91.4479L456.9 49.6864C456.71 49.1551 455.93 48.7119 454.558 48.3566L454.246 47.9658C454.33 47.6431 454.356 47.4088 454.325 47.263L467.229 44.5104C467.528 44.4847 467.705 44.5994 467.76 44.8545L467.853 45.292C466.206 46.8628 465.585 48.5959 465.989 50.4914C466.335 53.5427 467.361 70.8549 469.065 102.428L468.018 102.88L457.957 105.026C456.645 105.306 455.538 103.332 454.636 99.1034L436.466 53.5878L433.953 52.5233L433.906 52.3046C433.859 52.0859 434.031 51.8205 434.422 51.5085Z" fill="#BB3B30"/>
<path fill-rule="evenodd" clip-rule="evenodd" d="M607.79 46.1201C605.356 40.4896 600.456 37.4593 593.088 37.0291C583.414 36.4641 578.546 36.7026 578.486 37.7444L578.893 38.4402C580.53 38.5358 581.28 39.7557 581.143 42.0999L578.448 88.2573C578.418 88.7782 578.305 89.4251 578.111 90.1978C578.085 90.6443 577.144 91.4107 575.288 92.4971L575.275 92.7203C575.472 93.1799 575.683 93.4162 575.906 93.4292L589.971 94.2505L590.667 93.8431C590.686 93.5083 590.629 93.2063 590.495 92.9371C588.891 92.2834 588.132 91.2123 588.219 89.724L589.307 71.0824L593.326 71.317C593.582 77.1564 594.249 83.6357 595.327 90.7551C595.477 93.3027 596.073 94.6069 597.115 94.6677L608.054 95.3065C608.514 95.1094 608.75 94.8991 608.763 94.6759L608.776 94.4526C608.791 94.1922 608.292 93.7897 607.279 93.2451C605.641 93.1495 603.862 85.2611 601.94 69.5799C601.949 69.4311 602.036 69.2122 602.202 68.9232C606.36 66.7765 608.645 62.1683 609.058 55.0987C609.249 51.8243 608.827 48.8315 607.79 46.1201ZM589.761 63.3244L590.797 45.5758C590.812 45.3153 590.97 45.1752 591.27 45.1554L593.502 45.2857C597.331 46.2187 599.123 48.7688 598.88 52.9362L598.697 56.0617C597.949 61.2077 595.937 63.6851 592.663 63.4938L589.761 63.3244Z" fill="#BB3B30"/>
<path d="M620.716 39.0689L635.556 41.1388C635.535 41.2865 635.578 41.5183 635.684 41.8342C635.643 42.1295 634.907 42.5536 633.475 43.1066L633.32 44.214C633.952 58.3016 634.471 65.3737 634.877 65.4303L635.098 65.4612C640.104 52.2353 642.633 45.4378 642.685 45.0686C642.667 44.3887 642.011 43.6951 640.717 42.9878L640.557 42.5139C640.746 42.2392 640.851 42.028 640.871 41.8803L654.382 43.7649L654.449 44.9032C652.569 45.4313 651.529 46.4152 651.328 47.8548C642.121 67.4569 637.463 77.6455 637.355 78.4207L635.161 94.1464C634.935 95.7706 635.666 97.0016 637.356 97.8394L637.263 98.5039C637.232 98.7254 636.98 98.916 636.506 99.0757L623.217 97.222C622.478 97.119 622.077 96.7619 622.011 96.1507C622.063 95.7815 622.789 95.4312 624.19 95.0998C624.873 94.5177 625.313 93.5253 625.509 92.1225L627.609 77.0613C624.715 54.6423 622.915 42.725 622.21 41.3094C620.932 40.7549 620.33 40.2192 620.402 39.7024C620.591 39.4277 620.695 39.2165 620.716 39.0689Z" fill="#BB3B30"/>
<path fill-rule="evenodd" clip-rule="evenodd" d="M687.807 50.7865L672.529 47.3725C671.802 47.2099 671.3 47.4034 671.025 47.9528C671.816 49.1989 672.162 50.0402 672.065 50.4767C665.819 67.4892 659.457 83.6546 652.978 98.973C651.586 99.7313 650.874 100.183 650.842 100.329C650.785 100.927 650.938 101.267 651.302 101.348L663.305 104.031L664.058 103.74C664.196 103.122 663.687 102.321 662.532 101.337C662.922 99.5912 663.608 97.5484 664.589 95.2088L669.244 96.9365C669.717 97.0422 671.367 97.1816 674.192 97.3548C674.175 98.1148 673.87 100.166 673.275 103.509L673.227 103.727C671.754 104.162 670.986 104.525 670.921 104.816C670.864 105.414 671.017 105.754 671.381 105.835L684.257 108.713L685.01 108.422C685.188 107.622 684.664 106.894 683.435 106.238C683.214 102.445 684.338 85.1092 686.808 54.2297L686.906 53.7932C687.003 53.3567 687.675 52.743 688.921 51.9521C688.906 51.3376 688.534 50.9491 687.807 50.7865ZM670.722 88.2727C669.376 87.9719 668.35 87.4371 667.644 86.6681C670.203 79.4872 671.558 75.818 671.707 75.6605C675.295 64.3936 677.306 58.809 677.743 58.9065C678.143 58.9959 677.25 68.8026 675.064 88.3264C674.966 88.7629 673.883 88.8262 671.813 88.5165L670.722 88.2727Z" fill="#BB3B30"/>
<path fill-rule="evenodd" clip-rule="evenodd" d="M171.939 208.292L161.666 220.103C161.177 220.666 161.108 221.199 161.46 221.703C162.933 221.6 163.837 221.696 164.175 221.989C176.165 235.579 187.354 248.868 197.743 261.856C197.748 263.441 197.807 264.282 197.919 264.38C198.418 264.715 198.79 264.742 199.034 264.461L207.106 255.18L207.209 254.38C206.731 253.964 205.785 254.03 204.37 254.578C203.02 253.404 201.549 251.829 199.959 249.852L203.694 246.58C204.012 246.215 204.919 244.831 206.416 242.428C207.077 242.805 208.735 244.05 211.392 246.163L211.561 246.31C211.243 247.812 211.196 248.66 211.421 248.856C211.92 249.191 212.292 249.218 212.537 248.937L221.196 238.981L221.298 238.181C220.68 237.643 219.789 237.758 218.628 238.526C215.187 236.916 200.475 227.677 174.492 210.809L174.155 210.515C173.817 210.221 173.597 209.339 173.495 207.866C172.947 207.587 172.428 207.729 171.939 208.292ZM196.777 241.158C195.872 242.198 194.913 242.846 193.901 243.102C188.803 237.433 186.221 234.495 186.154 234.289C177.952 225.772 173.998 221.345 174.291 221.007C174.56 220.698 182.76 226.15 198.891 237.364C199.228 237.658 198.768 238.641 197.511 240.314L196.777 241.158Z" fill="#BB3B30"/>
<path d="M129.71 261.665L138.602 249.606C138.722 249.694 138.946 249.767 139.275 249.824C139.515 250.001 139.536 250.85 139.34 252.373L140.24 253.036C152.926 259.194 159.391 262.109 159.634 261.779L159.767 261.599C150.525 250.895 145.754 245.432 145.454 245.211C144.848 244.903 143.925 245.149 142.687 245.949L142.194 245.864C142.043 245.567 141.907 245.374 141.787 245.286L149.882 234.306L150.915 234.789C150.483 236.694 150.853 238.077 152.023 238.94C164.868 256.376 171.606 265.326 172.236 265.791L185.015 275.213C186.335 276.186 187.766 276.13 189.308 275.044L189.848 275.442C190.028 275.575 190.075 275.887 189.99 276.38L182.027 287.18C181.585 287.78 181.079 287.963 180.511 287.729C180.211 287.508 180.249 286.703 180.625 285.313C180.439 284.435 179.776 283.575 178.636 282.735L166.396 273.71C145.307 265.571 133.973 261.474 132.392 261.42C131.296 262.279 130.537 262.553 130.117 262.243C129.966 261.947 129.83 261.754 129.71 261.665Z" fill="#BB3B30"/>
<path fill-rule="evenodd" clip-rule="evenodd" d="M129.678 276.49C123.568 275.949 118.569 278.814 114.682 285.087C109.577 293.325 107.468 297.718 108.356 298.268L109.161 298.241C110.025 296.847 111.455 296.769 113.451 298.006L152.753 322.36C153.197 322.635 153.712 323.042 154.298 323.581C154.679 323.817 154.904 325.009 154.976 327.158L155.166 327.276C155.664 327.321 155.972 327.249 156.09 327.059L163.511 315.083L163.484 314.277C163.199 314.1 162.906 314.007 162.606 313.996C161.267 315.095 159.964 315.253 158.696 314.467L142.824 304.631L144.944 301.21C150.201 303.765 156.215 306.265 162.989 308.708C165.3 309.79 166.731 309.887 167.28 309L173.053 299.685C173.098 299.187 173.026 298.88 172.836 298.762L172.646 298.644C172.424 298.507 171.832 298.754 170.87 299.386C170.007 300.78 162.223 298.587 147.519 292.808C147.393 292.729 147.242 292.548 147.067 292.265C147.16 287.586 144.196 283.382 138.176 279.652C135.388 277.924 132.556 276.87 129.678 276.49ZM136.218 300.538L121.105 291.173C120.884 291.035 120.836 290.83 120.961 290.557L122.139 288.656C124.783 285.734 127.879 285.373 131.427 287.572L134.088 289.221C138.257 292.33 139.477 295.279 137.749 298.067L136.218 300.538Z" fill="#BB3B30"/>
<path d="M99.9829 310.374C106.459 312.212 109.946 313.259 110.443 313.516C110.485 314.083 110.412 314.549 110.224 314.913C108.288 315.087 107.114 315.571 106.703 316.366L101.979 325.504L113.699 331.564L117.499 324.214C118.201 322.856 117.92 321.452 116.656 320.001L116.964 319.405C117.067 319.207 117.368 319.111 117.868 319.118L128.794 324.767C129.191 324.972 129.253 325.34 128.979 325.869C128.808 326.2 128.007 326.29 126.575 326.137C125.754 326.426 125.147 326.951 124.753 327.713L121.056 334.864C120.952 335.146 121.016 335.347 121.248 335.467L137.537 343.889L142.57 334.155C142.328 332.351 141.942 331.313 141.412 331.039L141.925 330.046C142.062 329.781 142.329 329.751 142.727 329.956C147.448 333.404 150.22 335.509 151.043 336.27L149.612 338.551L139.443 358.218C139.272 358.549 138.905 358.611 138.341 358.403C138.076 358.266 137.92 357.43 137.875 355.896C137.583 355.242 137.09 354.735 136.395 354.376L93.8835 332.396C92.6585 331.762 91.4553 331.979 90.274 333.047C90.137 333.312 89.9361 333.376 89.6713 333.239L89.4726 333.136C89.274 333.033 89.178 332.732 89.1848 332.232L99.1477 312.963C99.4901 312.301 99.7685 311.438 99.9829 310.374Z" fill="#BB3B30"/>
<path d="M76.29 360.177L70.9805 372.743C71.0124 373.242 71.1313 373.535 71.3373 373.622L71.5433 373.709L73.8557 372.258L121.572 383.437C125.555 385.12 127.807 385.344 128.329 384.108L132.333 374.632L132.562 373.515C105.706 356.826 90.9284 347.749 88.2291 346.285C86.4438 345.531 85.379 344.029 85.0347 341.779L84.6227 341.605C84.3823 341.504 84.187 341.583 84.0366 341.843L78.9012 353.997C79.0385 354.055 79.2155 354.211 79.4321 354.464L79.9312 354.432C81.0081 353.512 81.8185 353.126 82.3625 353.275L118.815 374.018L119.021 374.105L118.76 374.723C92.2483 367.082 78.7523 363.16 78.2716 362.957C77.746 362.573 77.4578 361.723 77.407 360.406L76.29 360.177Z" fill="#BB3B30"/>
<path d="M61.7839 399.342L57.0781 413.567C57.2197 413.614 57.4086 413.755 57.6448 413.99C58.1402 414.154 58.7756 413.657 59.5509 412.501C61.0703 412.061 73.117 412.434 95.6909 413.621L110.128 418.397C111.473 418.841 112.37 419.452 112.82 420.229C112.894 421.667 113.108 422.444 113.462 422.561C114.075 422.607 114.498 422.276 114.732 421.569L118.947 408.829C118.875 408.335 118.733 408.052 118.52 407.982L117.883 407.771C116.755 409.282 115.413 409.78 113.856 409.265L98.7812 404.279C98.0381 404.033 88.8536 397.618 71.2277 385.035C69.8477 384.578 69.067 383.378 68.8858 381.434L67.754 381.295L63.4696 394.246C63.6111 394.293 63.8 394.434 64.0363 394.669L64.5312 394.597C65.4597 393.452 66.26 392.932 66.9321 393.036C67.2859 393.153 73.5177 396.863 85.6272 404.167L85.557 404.379C85.4282 404.769 78.3782 404.007 64.4068 402.094L63.3452 401.743C63.0589 400.235 62.7742 399.434 62.4911 399.34C62.1612 399.388 61.9255 399.389 61.7839 399.342Z" fill="#BB3B30"/>
<path d="M913.352 169.899L903.058 160.947C902.496 160.457 901.963 160.389 901.459 160.741C901.376 161.064 901.285 161.282 901.188 161.394C902.537 162.568 902.393 164.097 900.754 165.982L870.119 201.207C869.214 202.248 868.317 202.825 867.426 202.94C866.072 202.453 865.272 202.351 865.027 202.632C864.692 203.131 864.665 203.503 864.946 203.747L875.746 213.139L876.546 213.242L876.986 212.736C876.174 210.943 876.221 209.527 877.126 208.486L909.192 171.615L910.094 170.918L913.124 171.183L913.418 170.845C913.543 170.361 913.521 170.045 913.352 169.899Z" fill="#BB3B30"/>
<path d="M932.695 188.14L922.636 178.275C922.16 178.122 921.844 178.125 921.688 178.285L921.218 178.764C922.13 180.389 922.038 181.76 920.942 182.878L886.964 217.527C886.312 218.192 884.942 218.311 882.856 217.883L882.7 218.043C882.546 218.519 882.549 218.835 882.709 218.991L897.878 233.866C898.436 234.414 899.289 235.355 900.435 236.688C904.445 234.303 907.482 232.27 909.548 230.589C909.704 230.43 909.648 230.061 909.379 229.484L909.219 229.327C907.011 229.876 905.321 229.576 904.15 228.428L897.284 221.695C897.098 221.513 897.096 221.302 897.278 221.063L928.437 189.288C929.224 188.964 930.543 189.004 932.392 189.408L932.705 189.088C932.858 188.612 932.855 188.296 932.695 188.14Z" fill="#BB3B30"/>
<path d="M949.827 205.559L959.155 216.117C959.304 216.285 959.284 216.601 959.097 217.064L958.762 217.361C956.946 216.826 955.634 216.692 954.826 216.959L921.476 246.426C921.277 246.651 921.264 246.861 921.437 247.057L927.804 254.263C928.89 255.492 930.554 255.912 932.796 255.522L932.944 255.69C933.171 256.285 933.201 256.656 933.034 256.805C930.853 258.333 927.678 260.144 923.509 262.236C922.46 260.825 921.677 259.826 921.159 259.239L907.092 243.318C906.944 243.151 906.963 242.835 907.15 242.371L907.318 242.223C909.368 242.799 910.743 242.778 911.441 242.161L947.808 210.029C948.981 208.993 949.171 207.631 948.377 205.945L948.88 205.501C949.047 205.353 949.363 205.372 949.827 205.559Z" fill="#BB3B30"/>
<path d="M983.225 245.328L974.82 234.583C974.361 233.995 973.851 233.827 973.289 234.077C973.146 234.378 973.016 234.574 972.898 234.666C974 236.075 973.568 237.549 971.601 239.088L934.83 267.849C933.743 268.698 932.752 269.095 931.856 269.039C930.619 268.303 929.853 268.05 929.559 268.28C929.136 268.706 929.039 269.066 929.268 269.359L938.086 280.633L938.852 280.886L939.38 280.473C938.924 278.558 939.239 277.176 940.325 276.327L978.814 246.222L979.832 245.71L982.757 246.545L983.109 246.27C983.324 245.818 983.362 245.504 983.225 245.328Z" fill="#BB3B30"/>
<path fill-rule="evenodd" clip-rule="evenodd" d="M995.407 261.922L1004.23 274.855C1004.65 275.471 1004.65 276.009 1004.24 276.468C1002.79 276.194 1001.88 276.183 1001.52 276.435L1001.15 276.687C978.24 297.542 965.572 309.43 963.142 312.351C963.59 313.669 963.476 314.559 962.798 315.021L962.051 314.719L954.616 303.819C954.406 303.511 954.527 303.158 954.977 302.76C955.224 302.592 956.033 302.853 957.405 303.541L957.589 303.415C960.308 301.381 961.933 300.092 962.464 299.549C960.52 297.491 959.411 296.263 959.138 295.862L956.92 291.42C954.605 292.457 952.708 293.48 951.23 294.488C951.401 295.996 951.225 296.928 950.702 297.285L949.954 296.983L943.024 286.821C942.814 286.513 942.934 286.16 943.385 285.763C943.508 285.679 944.337 285.836 945.871 286.233C961.069 279.477 976.761 272.023 992.947 263.871C993.316 263.619 993.638 262.768 993.912 261.318C994.489 261.105 994.987 261.307 995.407 261.922ZM964.987 287.272C964.977 288.316 965.361 289.408 966.138 290.547L966.768 291.471C968.067 293.111 968.901 293.805 969.271 293.553C984.209 280.794 991.562 274.245 991.331 273.906C991.08 273.536 985.794 276.239 975.476 282.013C975.259 282.025 971.762 283.778 964.987 287.272Z" fill="#BB3B30"/>
<path d="M1015.55 293.172L1014.4 290.735C1013.19 291.091 1009.98 292.25 1004.79 294.212C1004.4 294.436 1004.33 294.907 1004.57 295.628C1006.44 295.583 1007.71 296.142 1008.38 297.305L1011.62 302.923L974.035 324.595C972.808 325.303 971.755 325.566 970.876 325.384C969.721 324.501 968.999 324.143 968.708 324.311C968.229 324.673 968.082 325.016 968.268 325.339L975.306 337.544L976.029 337.902C976.319 337.734 976.54 337.521 976.692 337.261C976.357 335.561 976.851 334.329 978.175 333.566L1016.53 311.447L1019.89 317.259C1020.31 318.002 1020.15 319.214 1019.4 320.895L1019.74 321.476L1020.46 321.834C1023.53 319.03 1026.17 316.735 1028.36 314.952L1027.05 313.126L1015.55 293.172Z" fill="#BB3B30"/>
<path fill-rule="evenodd" clip-rule="evenodd" d="M1039.6 337.16C1042.79 343.814 1042.51 349.569 1038.77 354.426C1036.9 356.646 1034.48 358.465 1031.53 359.884C1025.14 362.947 1020 363.18 1016.11 360.582C1015.78 360.577 1015.54 360.606 1015.41 360.671C1002.62 369.947 996.581 375.325 997.29 376.803C997.305 377.954 997.194 378.585 996.959 378.698L996.758 378.795C996.556 378.892 996.258 378.787 995.862 378.48L991.123 368.6C990.671 367.659 991.524 366.506 993.68 365.141C999.387 360.75 1004.73 357.028 1009.72 353.976L1007.98 350.346L991.139 358.423C989.795 359.068 989.226 360.25 989.431 361.971C989.26 362.218 989.023 362.414 988.721 362.559L988.028 362.148L981.934 349.445C981.837 349.243 981.942 348.945 982.249 348.55L982.45 348.453C984.299 349.551 985.426 350.002 985.829 349.809C986.599 349.605 987.219 349.39 987.69 349.164L1029.38 329.166C1031.49 328.151 1032.2 326.903 1031.49 325.425L1031.9 324.731C1032.84 324.28 1035.41 328.423 1039.6 337.16ZM1031.01 339.295L1014.98 346.985L1016.24 349.606C1017.66 352.564 1020.8 353.123 1025.66 351.286L1028.49 349.932C1032.25 348.126 1033.61 345.323 1032.58 341.522L1031.61 339.505C1031.45 339.253 1031.25 339.183 1031.01 339.295Z" fill="#BB3B30"/>
<path fill-rule="evenodd" clip-rule="evenodd" d="M1060.38 386.145L1054.79 371.521C1054.53 370.825 1054.09 370.514 1053.48 370.587C1052.88 371.934 1052.36 372.688 1051.95 372.847C1034.31 377.029 1017.32 380.646 1000.97 383.698C999.572 382.957 998.802 382.612 998.663 382.665C998.132 382.948 997.933 383.263 998.066 383.611L1002.45 395.102L1003.11 395.569C1003.7 395.343 1004.09 394.477 1004.27 392.97C1005.95 392.332 1008.03 391.776 1010.52 391.303L1011.65 396.139C1011.82 396.591 1012.62 398.044 1014.03 400.495C1013.39 400.901 1011.51 401.778 1008.39 403.127L1008.18 403.207C1007.01 402.22 1006.28 401.779 1006 401.886C1005.47 402.168 1005.27 402.483 1005.41 402.831L1010.11 415.157L1010.77 415.625C1011.54 415.332 1011.86 414.492 1011.73 413.106C1014.77 410.828 1029.84 402.197 1056.96 387.213L1057.37 387.054C1057.79 386.894 1058.67 387.115 1060.02 387.718C1060.52 387.366 1060.64 386.842 1060.38 386.145ZM1019.69 392.589C1019.2 391.301 1019.08 390.15 1019.33 389.136C1026.73 387.307 1030.54 386.411 1030.75 386.449C1042.12 383.222 1047.89 381.817 1048.05 382.235C1048.2 382.618 1039.53 387.286 1022.04 396.239C1021.62 396.399 1020.97 395.53 1020.09 393.634L1019.69 392.589Z" fill="#BB3B30"/>
<path d="M1067.35 405.984L1070.49 416.949C1070.61 417.379 1069.43 418.106 1066.93 419.132C1065.44 420.567 1060.11 424.963 1050.93 432.321L1051.06 432.751L1069.33 427.516C1070.23 427.26 1070.98 426.113 1071.6 424.074L1071.82 424.013C1072.03 423.951 1072.31 424.105 1072.65 424.473L1076.34 437.372C1076.4 437.587 1076.25 437.864 1075.88 438.202L1075.67 438.264C1074.03 436.872 1072.78 436.3 1071.92 436.546L1024.62 450.094C1023.51 450.412 1022.76 451.324 1022.38 452.829L1021.95 452.953C1021.73 453.014 1021.46 452.861 1021.12 452.492L1018.35 442.818C1018.29 442.603 1018.44 442.326 1018.81 441.988L1032.14 438.17C1038.58 433.067 1044.51 428.035 1049.91 423.075L1049.85 422.86L1019.32 431.605C1018.36 431.882 1017.67 433.009 1017.27 434.985L1016.62 435.17L1016.01 434.648L1012.31 421.749C1012.21 421.391 1012.44 421.094 1012.99 420.858C1013.27 420.776 1013.96 421.277 1015.05 422.362C1015.71 422.638 1016.41 422.668 1017.17 422.452L1063.6 409.151C1065 408.751 1065.83 407.583 1066.09 405.647L1066.52 405.524C1066.73 405.462 1067.01 405.616 1067.35 405.984Z" fill="#BB3B30"/>
<path d="M1077.57 675.274L1080.19 664.174C1080.08 663.688 1079.91 663.418 1079.7 663.367L1079.26 663.264C1078.09 664.825 1076.79 665.439 1075.38 665.104L1028.37 653.996C1027.61 653.816 1027 653.444 1026.56 652.88C1026.15 651.403 1025.79 650.63 1025.5 650.561C1024.91 650.496 1024.56 650.646 1024.48 651.008L1021.39 664.067L1021.67 664.822L1022.33 664.977C1023.64 663.45 1024.79 662.802 1025.77 663.034L1056.68 670.337L1056.63 670.554C1049.49 672.238 1041.86 673.729 1033.74 675.027L1020.25 671.838C1019.76 671.953 1019.49 672.119 1019.44 672.337L1017.12 682.131C1017.24 682.617 1017.4 682.886 1017.62 682.938L1018.06 683.041C1019.13 681.915 1020.23 681.485 1021.35 681.75L1069.23 693.065C1070.1 693.271 1070.91 694.381 1071.66 696.397L1071.88 696.448C1072.36 696.333 1072.63 696.167 1072.68 695.949L1075.77 682.891C1075.66 682.404 1075.49 682.135 1075.27 682.084L1075.05 682.033C1073.52 683.508 1072.3 684.138 1071.39 683.924L1052.89 679.553L1052.99 679.117C1064.6 677.186 1071.4 675.959 1073.4 675.436C1076.08 675.763 1077.47 675.709 1077.57 675.274Z" fill="#BB3B30"/>
<path fill-rule="evenodd" clip-rule="evenodd" d="M1043.09 733.069C1054.58 734.657 1061.44 732.053 1063.68 725.256C1066.85 715.627 1059.8 707.966 1042.53 702.273C1023.55 696.02 1012.53 697.566 1009.44 706.911C1006.32 716.398 1014.17 724.245 1033 730.451C1035.27 731.198 1038.63 732.071 1043.09 733.069ZM1043.15 713.073C1043.19 712.932 1043.29 712.884 1043.43 712.931C1045.58 713.796 1047.18 714.403 1048.24 714.753C1054.43 717.655 1057.18 720.133 1056.51 722.186L1056.3 722.823C1055.32 725.797 1048.72 725.271 1036.51 721.246L1036.08 721.106C1022.31 716.568 1015.89 712.883 1016.83 710.051L1017.11 709.201L1017.67 708.209C1020.68 706.69 1026.19 707.249 1034.19 709.886C1034.33 709.932 1034.5 710.068 1034.7 710.291L1036.05 710.498L1041.73 712.371L1043.15 713.073Z" fill="#BB3B30"/>
<path d="M1047.2 768.71C1045.89 771.031 1044.97 772.827 1044.43 774.097L1044.64 774.184C1044.33 774.905 1041.07 774.253 1034.84 772.227L1034.76 772.433C1034.27 772.064 1034.17 771.536 1034.46 770.849L1034.54 770.643C1036.78 770.334 1038.31 769.201 1039.14 767.244L1039.83 765.596C1041.34 762.026 1038.42 758.037 1031.05 753.628C1029.05 752.62 1027.18 751.746 1025.43 751.005L1021.92 749.524C1013.69 746.04 1007.92 744.979 1004.64 746.341C1003.43 746.885 1002.5 747.947 1001.83 749.526L1001.74 749.732L1001.52 750.849L1017.74 757.708C1018.7 758.115 1019.87 757.639 1021.25 756.282L1021.66 756.456C1021.87 756.543 1021.99 756.836 1022.02 757.335L1016.62 770.105C1016.45 770.517 1016.08 770.607 1015.54 770.375C1015.33 770.288 1015.07 769.369 1014.76 767.618C1014.25 767.283 1014.04 767.03 1014.11 766.858L1011.55 766.019L998.42 760.466C997.87 760.234 997.161 759.853 996.292 759.324L992.854 758.841C992.464 754.022 993.234 749.33 995.165 744.764C998.344 737.246 1006.3 735.027 1019.04 738.108C1022.41 739.046 1025.64 740.169 1028.73 741.475C1040.67 746.527 1047.25 753.274 1048.46 761.715C1048.58 764.113 1048.16 766.444 1047.2 768.71Z" fill="#BB3B30"/>
<path fill-rule="evenodd" clip-rule="evenodd" d="M1029.66 805.481L1035.27 794.79C1036.59 792.282 1036.98 790.889 1036.45 790.612L1035.86 790.3C1034.47 791.589 1033.28 791.974 1032.29 791.454L989.223 768.84L988.387 768.148L987.947 765.138L987.749 765.034C987.089 764.688 985.442 767.022 982.808 772.038L981.456 774.612L980.53 775.894C979.681 777.511 978.895 780.129 978.173 783.749C977.666 791.609 983.589 798.929 995.941 805.71L1001.04 808.387C1006.12 811.056 1011.29 812.51 1016.56 812.748C1022.99 812.292 1027.35 809.87 1029.66 805.481ZM988.108 779.621L1024.24 798.596L1023.1 800.774C1020.95 804.866 1014.31 803.992 1003.19 798.152C998.017 795.265 993.867 792.665 990.746 790.352C986.925 787.125 985.769 784.076 987.277 781.205L988.108 779.621Z" fill="#BB3B30"/>
<path fill-rule="evenodd" clip-rule="evenodd" d="M1011.38 837.806L1002.97 851.011C1002.57 851.64 1002.08 851.857 1001.5 851.663C1001.18 850.222 1000.83 849.381 1000.45 849.141L1000.08 848.901C971.879 836.073 955.96 829.119 952.318 828.037C951.283 828.969 950.42 829.214 949.728 828.774L949.711 827.968L956.797 816.838C956.997 816.524 957.369 816.495 957.912 816.753C958.164 816.913 958.244 817.759 958.152 819.291L958.34 819.411C961.281 821.107 963.107 822.092 963.815 822.367C964.939 819.769 965.632 818.265 965.892 817.856L969.1 814.067C967.234 812.348 965.546 811.008 964.037 810.048C962.719 810.799 961.793 811.005 961.258 810.664L961.241 809.858L967.847 799.483C968.047 799.169 968.419 799.14 968.962 799.397C969.088 799.478 969.271 800.301 969.51 801.867C981.711 813.171 994.748 824.653 1008.62 836.313C1009 836.554 1009.91 836.514 1011.35 836.194C1011.77 836.64 1011.78 837.177 1011.38 837.806ZM976.092 819.844C975.129 820.247 974.277 821.03 973.536 822.193L972.936 823.137C971.94 824.977 971.631 826.018 972.009 826.258C989.625 834.955 998.542 839.131 998.763 838.785C999.003 838.408 994.436 834.616 985.061 827.41C984.964 827.216 981.974 824.694 976.092 819.844Z" fill="#BB3B30"/>
<path fill-rule="evenodd" clip-rule="evenodd" d="M967.233 886.452C973.265 887.565 978.511 885.181 982.97 879.3C988.825 871.578 991.337 867.402 990.505 866.771L989.7 866.723C988.71 868.029 987.279 867.973 985.408 866.555L948.565 838.618C948.15 838.303 947.675 837.85 947.141 837.258C946.785 836.988 946.672 835.779 946.803 833.633L946.624 833.498C946.133 833.406 945.82 833.449 945.684 833.627L937.172 844.854L937.123 845.658C937.39 845.861 937.673 845.982 937.971 846.021C939.407 845.052 940.719 845.018 941.907 845.919L956.787 857.201L954.355 860.409C949.361 857.371 943.607 854.318 937.093 851.249C934.894 849.955 933.479 849.724 932.848 850.556L926.227 859.288C926.135 859.779 926.178 860.092 926.356 860.228L926.534 860.363C926.742 860.52 927.355 860.33 928.371 859.791C929.362 858.484 936.906 861.398 951.002 868.531C951.121 868.621 951.254 868.816 951.401 869.115C950.87 873.764 953.426 878.228 959.069 882.506C961.682 884.488 964.404 885.803 967.233 886.452ZM962.979 861.897L977.146 872.639C977.354 872.796 977.382 873.005 977.232 873.265L975.881 875.047C972.974 877.708 969.858 877.777 966.532 875.255L964.037 873.363C960.179 869.877 959.241 866.827 961.222 864.213L962.979 861.897Z" fill="#BB3B30"/>
<path d="M965.58 901.353L963.635 903.216L948.379 920.474L947.065 922.297C944.675 920.781 941.661 919.013 938.025 916.992L938.134 916.193L938.579 915.691C940.411 915.868 941.612 915.636 942.18 914.993L946.623 909.967L913.448 880.64C912.303 879.628 910.978 879.551 909.473 880.41C909.179 880.349 908.906 880.207 908.654 879.985L908.764 879.186L918.095 868.63C918.342 868.351 918.713 868.381 919.209 868.72C919.461 868.942 919.352 869.741 918.882 871.117C918.989 872.008 919.574 872.922 920.635 873.86L953.14 902.595L957.435 897.736C958.324 896.73 958.45 895.349 957.814 893.593C958.419 893.133 958.89 893.052 959.225 893.348C962.737 897.647 964.856 900.315 965.58 901.353Z" fill="#BB3B30"/>
<path d="M929.069 940.464L939.371 930.528C939.537 930.057 939.543 929.74 939.388 929.579L939.077 929.257C937.272 929.963 935.852 929.779 934.817 928.706L900.971 893.617C900.325 892.947 900.244 891.574 900.729 889.501L900.574 889.34C900.103 889.173 899.786 889.167 899.625 889.323L889.324 899.259L889.152 900.047L889.934 900.535C891.087 899.423 892.663 899.767 894.66 901.57L909.642 917.102C909.823 917.29 909.819 917.501 909.631 917.734L903.192 923.945L887.123 907.285C886.761 906.91 886.556 906.59 886.508 906.325C886.198 906.003 886.27 904.898 886.726 903.008L886.571 902.847C886.099 902.68 885.783 902.675 885.622 902.83L875.321 912.766L875.148 913.554C875.252 913.661 875.461 913.77 875.775 913.882C877.287 913.355 878.343 913.269 878.943 913.622L914.341 950.321L914.491 950.798L913.962 953.793L914.117 953.954C914.589 954.121 914.905 954.127 915.066 953.972L925.367 944.035C925.534 943.564 925.54 943.247 925.385 943.087L925.074 942.765C923.346 943.551 921.978 943.421 920.969 942.374L908.781 929.739L915.22 923.529C915.408 923.348 915.605 923.338 915.813 923.5L926.953 935.049C927.703 935.827 928.165 936.52 928.339 937.13C928.52 937.318 928.396 938.37 927.966 940.286L928.121 940.447C928.592 940.614 928.909 940.62 929.069 940.464Z" fill="#BB3B30"/>
<path d="M666.239 1078.89C663.53 1072.73 662.117 1069.37 661.998 1068.83C662.409 1068.43 662.814 1068.19 663.215 1068.11C664.582 1069.49 665.703 1070.08 666.577 1069.89L676.631 1067.72L673.836 1054.82L665.75 1056.57C664.256 1056.9 663.353 1058.01 663.04 1059.91L662.384 1060.05C662.165 1060.1 661.9 1059.92 661.586 1059.53L658.981 1047.51C658.887 1047.08 659.131 1046.79 659.713 1046.67C660.078 1046.59 660.657 1047.15 661.451 1048.35C662.197 1048.8 662.988 1048.93 663.826 1048.75L671.694 1047.05C671.978 1046.95 672.092 1046.77 672.037 1046.51L668.153 1028.59L657.443 1030.91C656.207 1032.25 655.653 1033.21 655.779 1033.79L654.686 1034.03C654.395 1034.09 654.202 1033.9 654.107 1033.47C653.757 1027.63 653.614 1024.15 653.677 1023.03L656.347 1022.68L677.984 1018C678.348 1017.92 678.63 1018.16 678.829 1018.73C678.892 1019.02 678.347 1019.67 677.194 1020.68C676.875 1021.33 676.799 1022.03 676.964 1022.79L687.1 1069.57C687.392 1070.91 688.326 1071.7 689.901 1071.93C690.193 1071.87 690.37 1071.98 690.433 1072.28L690.481 1072.49C690.528 1072.71 690.357 1072.98 689.967 1073.29L668.767 1077.89C668.038 1078.04 667.195 1078.38 666.239 1078.89Z" fill="#BB3B30"/>
<path fill-rule="evenodd" clip-rule="evenodd" d="M635.471 1083.92C630.485 1084.6 626.242 1082.71 622.742 1078.26C621.55 1076.13 620.809 1073.99 620.519 1071.85C619.843 1066.86 621.309 1062.69 624.917 1059.34C619.218 1057.26 615.893 1052.71 614.942 1045.69C613.88 1037.86 616.878 1032.22 623.934 1028.79C626.272 1027.72 628.807 1027 631.54 1026.63L632.648 1026.48C640.183 1025.45 644 1025.31 644.1 1026.05C644.175 1026.61 643.581 1027.21 642.316 1027.87C641.943 1028.45 641.789 1028.98 641.854 1029.46L648.426 1077.94C648.561 1078.93 649.491 1079.69 651.216 1080.21C651.236 1080.36 651.32 1080.42 651.468 1080.4C651.588 1081.29 649.949 1081.96 646.551 1082.42L635.471 1083.92ZM637.943 1075.52L636.035 1061.45L634.262 1061.69C631.235 1062.66 629.961 1064.92 630.442 1068.47L630.833 1071.35C631.218 1074.19 632.997 1075.66 636.17 1075.76L637.943 1075.52ZM634.901 1053.08L632.423 1034.8L629.542 1035.19C625.928 1036.28 624.44 1039.17 625.076 1043.86L625.466 1046.75C626.032 1050.92 628.069 1053.18 631.577 1053.53C632.41 1053.57 633.01 1053.56 633.38 1053.51L634.901 1053.08Z" fill="#BB3B30"/>
<path d="M580.267 1077.89C580.298 1078.45 581.171 1081.98 582.885 1088.49C583.91 1088.14 584.794 1087.94 585.539 1087.89L607.196 1086.66C607.63 1086.41 607.841 1086.18 607.828 1085.96L607.815 1085.73C607.798 1085.43 607.641 1085.29 607.343 1085.31C605.823 1084.84 605.024 1083.91 604.946 1082.54L602.232 1034.75C602.187 1033.97 602.373 1033.29 602.787 1032.71C604.085 1031.89 604.725 1031.33 604.708 1031.03C604.6 1030.44 604.36 1030.15 603.988 1030.18L581.884 1031.43L579.192 1031.36C578.955 1032.46 578.554 1035.91 577.989 1041.73C578.014 1042.18 578.176 1042.39 578.473 1042.38L579.59 1042.31C579.556 1041.72 580.254 1040.86 581.683 1039.73L592.623 1039.11L593.663 1057.42C593.678 1057.68 593.538 1057.83 593.242 1057.89L585.204 1058.35C584.348 1058.39 583.587 1058.14 582.921 1057.58C582.324 1056.27 581.839 1055.62 581.467 1055.65C580.872 1055.68 580.587 1055.92 580.612 1056.37L581.31 1068.65C581.558 1069.08 581.794 1069.29 582.017 1069.28L582.687 1069.24C583.293 1067.41 584.358 1066.46 585.884 1066.37L594.145 1065.9L594.893 1079.07L584.623 1079.66C583.73 1079.71 582.716 1078.94 581.581 1077.37C581.172 1077.39 580.733 1077.56 580.267 1077.89Z" fill="#BB3B30"/>
<path fill-rule="evenodd" clip-rule="evenodd" d="M559.655 1088.85L544.004 1088.53C543.258 1088.52 542.817 1088.21 542.68 1087.61C543.745 1086.59 544.282 1085.85 544.291 1085.41L544.3 1084.96C540.603 1054.2 538.27 1036.99 537.302 1033.32C535.968 1032.92 535.309 1032.31 535.326 1031.49L536.006 1031.05L549.197 1031.32C549.57 1031.33 549.787 1031.63 549.85 1032.23C549.844 1032.53 549.162 1033.04 547.806 1033.75L547.801 1033.98C547.881 1037.37 547.988 1039.44 548.122 1040.19C550.925 1039.8 552.57 1039.61 553.054 1039.62L557.959 1040.39C558.457 1037.9 558.725 1035.77 558.761 1033.98C557.434 1033.24 556.777 1032.56 556.79 1031.92L557.47 1031.49L569.767 1031.74C570.14 1031.75 570.357 1032.05 570.42 1032.65C570.417 1032.8 569.808 1033.38 568.595 1034.4C565.28 1050.7 562.246 1067.81 559.495 1085.72C559.486 1086.17 559.992 1086.92 561.014 1087.99C560.853 1088.58 560.4 1088.87 559.655 1088.85ZM556.658 1049.37C555.813 1048.75 554.701 1048.43 553.322 1048.41L552.204 1048.38C550.114 1048.49 549.065 1048.77 549.056 1049.21C550.781 1068.78 551.849 1078.57 552.259 1078.58C552.706 1078.59 553.572 1072.72 554.855 1060.96C554.971 1060.78 555.572 1056.91 556.658 1049.37Z" fill="#BB3B30"/>
<path d="M522.554 1087.14L525.205 1087.62C525.618 1086.42 526.531 1083.14 527.942 1077.77C527.985 1077.32 527.642 1076.99 526.914 1076.77C525.868 1078.32 524.677 1079.03 523.341 1078.9L516.885 1078.29L521.008 1035.1C521.143 1033.69 521.539 1032.68 522.196 1032.07C523.585 1031.64 524.296 1031.26 524.328 1030.92C524.31 1030.32 524.116 1030 523.745 1029.97L509.72 1028.63L509.009 1029.01C508.977 1029.34 509.023 1029.65 509.147 1029.92C510.726 1030.63 511.443 1031.75 511.298 1033.27L507.09 1077.35L500.411 1076.71C499.558 1076.63 498.664 1075.8 497.729 1074.21L497.062 1074.15L496.351 1074.53C496.856 1078.66 497.198 1082.14 497.377 1084.96L499.625 1084.95L522.554 1087.14Z" fill="#BB3B30"/>
<path d="M486.097 1083.56L472.004 1081.07C471.784 1081.03 471.603 1080.77 471.461 1080.29L471.5 1080.07C473.303 1079.29 474.227 1078.77 474.273 1078.52C474.664 1078.02 474.954 1077.24 475.142 1076.17L477.941 1060.37C477.95 1060.11 477.826 1059.95 477.569 1059.91L468.761 1058.35L465.699 1075.63C465.445 1077.07 466.144 1078.25 467.795 1079.18L467.717 1079.63C467.678 1079.85 467.419 1080.03 466.939 1080.17L452.846 1077.67C452.626 1077.63 452.445 1077.37 452.303 1076.89L452.342 1076.67L455.076 1075.34L455.374 1074.94L464.267 1024.73C464.201 1024.04 463.51 1023.24 462.196 1022.32C462.101 1022 462.067 1021.77 462.093 1021.62L462.832 1021.3L476.925 1023.8C477.145 1023.84 477.326 1024.09 477.468 1024.57L477.429 1024.79C475.632 1025.54 474.695 1026.13 474.617 1026.57C474.431 1026.76 474.293 1027.12 474.202 1027.63L470.165 1050.42L478.973 1051.98C479.273 1052 479.446 1051.88 479.491 1051.62L483.255 1030.37C483.54 1027.69 482.893 1026.22 481.315 1025.94L481.251 1025.02L481.989 1024.69L496.083 1027.19C496.303 1027.23 496.484 1027.49 496.626 1027.97L496.587 1028.19C494.624 1029.01 493.561 1029.88 493.399 1030.8L484.896 1078.81C484.636 1080.28 485.321 1081.53 486.953 1082.58L486.875 1083.02C486.836 1083.24 486.577 1083.42 486.097 1083.56Z" fill="#BB3B30"/>
<path fill-rule="evenodd" clip-rule="evenodd" d="M58.5636 687.093C54.0458 691.243 52.7943 696.867 54.8091 703.967C57.4548 713.289 59.2797 717.808 60.2837 717.523L60.807 716.91C60.3592 715.332 61.2648 714.223 63.5238 713.581L108.003 700.958C108.505 700.816 109.153 700.709 109.947 700.639C110.377 700.517 111.41 701.154 113.046 702.549L113.261 702.488C113.63 702.151 113.784 701.875 113.723 701.66L109.877 688.106L109.263 687.583C108.941 687.674 108.674 687.827 108.464 688.042C108.374 689.772 107.612 690.841 106.177 691.248L88.2135 696.346L87.1145 692.474C92.5452 690.312 98.4455 687.553 104.815 684.196C107.172 683.217 108.208 682.226 107.923 681.222L104.931 670.68C104.594 670.311 104.318 670.157 104.103 670.218L103.888 670.279C103.637 670.35 103.421 670.954 103.239 672.09C103.687 673.668 96.8216 677.941 82.643 684.909C82.4996 684.95 82.2641 684.939 81.9365 684.877C78.5427 681.656 73.4395 681.012 66.6268 682.945C63.4715 683.841 60.7837 685.224 58.5636 687.093ZM80.7375 698.468L63.6341 703.322C63.3831 703.393 63.199 703.29 63.0817 703.014L62.4711 700.862C62.0941 696.94 63.9135 694.409 67.9294 693.269L70.9413 692.414C76.0475 691.43 79.0483 692.516 79.9437 695.671L80.7375 698.468Z" fill="#BB3B30"/>
<path fill-rule="evenodd" clip-rule="evenodd" d="M68.0192 743.788C65.5047 737.088 69.2198 730.758 79.1644 724.796C83.2645 722.779 86.4312 721.352 88.6645 720.514C107.229 713.547 118.266 714.739 121.776 724.091C125.233 733.303 117.61 741.419 98.9061 748.439C81.8771 754.83 71.5815 753.28 68.0192 743.788ZM91.5229 740.7C91.6625 740.648 91.7061 740.552 91.6537 740.412L93.1979 740.071L98.7986 737.969L99.9763 737.289C100.273 737.336 100.491 737.334 100.631 737.282C108.517 734.322 113.158 731.306 114.553 728.235L114.369 727.109L114.055 726.272C113.007 723.48 105.696 724.632 92.122 729.726L91.7032 729.883C79.6643 734.402 74.1949 738.126 75.295 741.058L75.5307 741.686C76.2903 743.71 79.9896 743.914 86.6287 742.298C87.6756 741.905 89.307 741.372 91.5229 740.7Z" fill="#BB3B30"/>
<path d="M88.4229 791.255L93.3308 801.55C93.7251 801.858 94.0232 801.963 94.2251 801.867L94.6288 801.675C94.5655 799.723 95.1899 798.434 96.502 797.809L140.106 777.022C140.812 776.685 141.514 776.599 142.211 776.762C143.461 777.652 144.221 778.033 144.49 777.905C144.996 777.581 145.169 777.251 145.009 776.914L139.235 764.802L138.543 764.389L137.937 764.678C137.866 766.694 137.376 767.918 136.467 768.351L107.802 782.016L107.706 781.815C112.216 776.031 117.229 770.09 122.745 763.992L135.261 758.026C135.569 757.631 135.674 757.333 135.578 757.131L131.248 748.047C130.853 747.74 130.555 747.634 130.353 747.73L129.95 747.923C129.82 749.471 129.234 750.493 128.191 750.991L83.7804 772.162C82.9729 772.547 81.6459 772.189 79.7994 771.087L79.5976 771.183C79.2901 771.578 79.1844 771.876 79.2807 772.077L85.0547 784.19C85.449 784.497 85.7471 784.603 85.949 784.506L86.1509 784.41C86.424 782.298 86.9811 781.042 87.8222 780.641L104.981 772.461L105.173 772.864C97.3396 781.636 92.8069 786.853 91.5753 788.513C89.2812 789.937 88.2304 790.851 88.4229 791.255Z" fill="#BB3B30"/>
<path d="M100.939 815.429C105.969 810.955 108.726 808.577 109.21 808.296C109.711 808.566 110.065 808.878 110.271 809.232C109.377 810.958 109.155 812.208 109.604 812.982L114.772 821.876L126.18 815.248L122.024 808.094C121.256 806.772 119.921 806.255 118.018 806.541L117.681 805.961C117.569 805.768 117.65 805.462 117.924 805.044L128.559 798.865C128.946 798.641 129.289 798.786 129.589 799.302C129.776 799.624 129.421 800.348 128.523 801.473C128.325 802.32 128.442 803.115 128.873 803.856L132.917 810.817C133.099 811.056 133.303 811.11 133.528 810.979L149.384 801.767L143.88 792.292C142.228 791.527 141.145 791.295 140.629 791.594L140.068 790.628C139.918 790.37 140.036 790.128 140.423 789.904C145.868 787.775 149.132 786.568 150.217 786.283L151.371 788.716L162.493 807.859C162.68 808.181 162.535 808.525 162.057 808.889C161.799 809.038 161.011 808.72 159.692 807.935C158.984 807.829 158.292 807.972 157.615 808.366L116.234 832.407C115.042 833.1 114.578 834.231 114.844 835.801C114.994 836.059 114.939 836.263 114.682 836.412L114.488 836.525C114.295 836.637 113.989 836.556 113.571 836.282L102.674 817.525C102.3 816.88 101.721 816.182 100.939 815.429Z" fill="#BB3B30"/>
<path d="M126.61 856.943L134.554 868.579C134.991 868.822 135.302 868.881 135.486 868.755L136.04 868.376C135.463 866.605 135.82 865.277 137.113 864.395L177.193 837.034C177.962 836.509 179.329 836.659 181.292 837.485L181.476 837.359C181.72 836.922 181.778 836.612 181.652 836.427L169.674 818.88C169.233 818.234 168.58 817.145 167.715 815.614C163.318 817.172 159.943 818.574 157.589 819.82C157.404 819.946 157.388 820.318 157.539 820.937L157.665 821.121C159.938 821.014 161.537 821.637 162.462 822.991L167.884 830.934C168.031 831.149 167.992 831.356 167.766 831.555L131.011 856.646C130.176 856.81 128.89 856.514 127.156 855.758L126.786 856.01C126.543 856.447 126.484 856.758 126.61 856.943Z" fill="#BB3B30"/>
<path fill-rule="evenodd" clip-rule="evenodd" d="M156.644 897.141L146.85 884.929C146.383 884.348 146.336 883.812 146.708 883.323C148.175 883.484 149.083 883.425 149.432 883.145L149.781 882.865C171.006 860.301 182.716 847.469 184.913 844.369C184.364 843.089 184.41 842.193 185.049 841.68L185.818 841.923L194.073 852.216C194.306 852.507 194.214 852.868 193.795 853.299C193.562 853.486 192.736 853.289 191.315 852.709L191.14 852.849C188.587 855.087 187.067 856.498 186.579 857.08C188.677 858.981 189.877 860.121 190.18 860.499L192.735 864.756C194.963 863.543 196.775 862.377 198.17 861.257C197.883 859.767 197.987 858.824 198.481 858.428L199.25 858.671L206.945 868.267C207.178 868.557 207.086 868.918 206.667 869.35C206.551 869.443 205.713 869.351 204.152 869.073C189.522 876.984 174.454 885.629 158.946 895.008C158.597 895.288 158.342 896.161 158.181 897.629C157.623 897.885 157.11 897.723 156.644 897.141ZM185.013 869.516C184.942 868.474 184.475 867.415 183.613 866.339L182.913 865.467C181.491 863.932 180.605 863.304 180.256 863.584C166.35 877.461 159.524 884.559 159.781 884.879C160.061 885.228 165.121 882.125 174.962 875.57C175.178 875.541 178.528 873.523 185.013 869.516Z" fill="#BB3B30"/>
<path fill-rule="evenodd" clip-rule="evenodd" d="M175.297 918.537L186.056 929.908C186.568 930.449 187.092 930.569 187.628 930.267C187.668 928.792 187.851 927.901 188.176 927.593C202.865 916.979 217.177 907.132 231.112 898.052C232.69 898.201 233.533 898.224 233.641 898.122C234.023 897.658 234.086 897.29 233.83 897.02L225.376 888.085L224.59 887.905C224.13 888.341 224.104 889.289 224.512 890.751C223.212 891.98 221.502 893.291 219.38 894.682L216.486 890.647C216.153 890.295 214.864 889.258 212.617 887.535C213.056 886.914 214.457 885.384 216.818 882.945L216.98 882.791C218.444 883.253 219.284 883.382 219.501 883.177C219.883 882.713 219.945 882.346 219.689 882.075L210.621 872.491L209.835 872.311C209.239 872.874 209.267 873.772 209.919 875.002C207.983 878.271 197.36 892.017 178.049 916.24L177.725 916.547C177.4 916.855 176.5 916.988 175.024 916.947C174.693 917.465 174.784 917.995 175.297 918.537ZM210.418 897.005C211.365 898.007 211.917 899.024 212.073 900.056C205.937 904.58 202.763 906.865 202.55 906.912C193.278 914.249 188.488 917.755 188.18 917.43C187.899 917.132 194.121 909.5 206.848 894.533C207.172 894.226 208.106 894.779 209.649 896.193L210.418 897.005Z" fill="#BB3B30"/>
<path d="M205.185 947.941C206.211 948.863 207.609 950.319 209.378 952.31C211.208 953.954 213.275 955.11 215.581 955.779C223.954 957.39 232.476 953.371 241.145 943.723C243.387 941.228 245.5 938.541 247.484 935.664C254.547 924.624 255.043 916.376 248.972 910.92C245.284 907.607 241.099 905.35 236.416 904.149L234.84 907.242C234.056 907.891 233.465 908.437 233.066 908.88L223.538 919.485L221.911 921.631C221.772 921.506 221.462 921.628 220.98 921.997C219.224 921.722 218.27 921.667 218.121 921.833C217.722 922.277 217.689 922.648 218.022 922.947L228.336 932.214C228.818 932.347 229.134 932.33 229.283 932.163L229.582 931.831C228.75 930.081 228.682 928.817 229.38 928.041L241.15 914.941L242.131 915.522L242.298 915.671C243.573 916.817 244.272 918.047 244.395 919.36C244.611 922.911 241.73 928.014 235.751 934.668L233.211 937.496C231.94 938.91 230.502 940.399 228.896 941.963C222.33 947.487 217.605 948.953 214.721 946.363L213.39 945.167C211.81 943.747 211.238 941.93 211.674 939.716L211.507 939.567C210.953 939.069 210.421 938.991 209.911 939.335L210.078 939.485C206.134 944.71 204.454 947.585 205.036 948.108L205.185 947.941Z" fill="#BB3B30"/>
<path fill-rule="evenodd" clip-rule="evenodd" d="M563 1126C873.936 1126 1126 873.936 1126 563C1126 252.064 873.936 0 563 0C252.064 0 0 252.064 0 563C0 873.936 252.064 1126 563 1126ZM563 1103C861.234 1103 1103 861.234 1103 563C1103 264.766 861.234 23 563 23C264.766 23 23 264.766 23 563C23 861.234 264.766 1103 563 1103Z" fill="#BB3B30"/>
</svg>
